<svg xmlns="http://www.w3.org/2000/svg" viewBox="0 0 16 16" fill="none">
  <path d="M8.5 5C8.5 4.72386 8.27614 4.5 8 4.5C7.72386 4.5 7.5 4.72386 7.5 5V7.89645C7.5 8.09536 7.57902 8.28612 7.71967 8.42678L9.64645 10.3536C9.84171 10.5488 10.1583 10.5488 10.3536 10.3536C10.5488 10.1583 10.5488 9.84171 10.3536 9.64645L8.5 7.79289V5Z" fill="black" />
  <path fillRule="evenodd" clipRule="evenodd" d="M14 8C14 11.3137 11.3137 14 8 14C4.68629 14 2 11.3137 2 8C2 4.68629 4.68629 2 8 2C11.3137 2 14 4.68629 14 8ZM12.9754 8.4994C12.7411 10.8621 10.8621 12.7411 8.4994 12.9754C8.48656 12.7107 8.26788 12.5 8 12.5C7.73212 12.5 7.51344 12.7107 7.5006 12.9754C5.13791 12.7411 3.25893 10.8621 3.02463 8.4994C3.28933 8.48656 3.5 8.26788 3.5 8C3.5 7.73212 3.28933 7.51344 3.02463 7.5006C3.25893 5.13791 5.13791 3.25893 7.5006 3.02463C7.51344 3.28933 7.73212 3.5 8 3.5C8.26788 3.5 8.48656 3.28933 8.4994 3.02463C10.8621 3.25893 12.7411 5.13791 12.9754 7.5006C12.7107 7.51344 12.5 7.73212 12.5 8C12.5 8.26788 12.7107 8.48656 12.9754 8.4994Z" fill="black" />
</svg>