<svg xmlns="http://www.w3.org/2000/svg" width="30" height="30" viewBox="0 0 30 30" fill="none">
  <path d="M21.1802 3.20434H24.7787C25.415 3.20434 26.0252 3.4571 26.4751 3.907C26.925 4.35691 27.1777 4.96711 27.1777 5.60337L27.1777 14C27.1777 14.6362 26.925 15.2464 26.4751 15.6963C26.0252 16.1462 25.415 16.399 24.7787 16.399H21.1802M12.7836 18.798L12.7836 23.5961C12.7836 24.5505 13.1627 25.4658 13.8376 26.1406C14.5124 26.8155 15.4277 27.1946 16.3821 27.1946L21.1802 16.399L21.1802 3.20434L7.64965 3.20434C7.0711 3.1978 6.50966 3.40058 6.06881 3.7753C5.62795 4.15003 5.33738 4.67146 5.25063 5.24352L3.5953 16.0391C3.54311 16.383 3.5663 16.734 3.66326 17.068C3.76023 17.402 3.92864 17.7109 4.15684 17.9733C4.38504 18.2358 4.66757 18.4454 4.98485 18.5878C5.30213 18.7302 5.64658 18.802 5.99433 18.798H12.7836Z" stroke="currentColor" strokeWidth="2.39903" strokeLinecap="round" strokeLinejoin="round" />
</svg>