<svg xmlns="http://www.w3.org/2000/svg" width="9" height="9" viewBox="0 0 9 9" fill="none">
  <path d="M0.674265 2.32021C-0.957612 5.13891 1.07633 8.66667 4.33333 8.66667C7.59034 8.66667 9.62428 5.1389 7.9924 2.32021C6.3639 -0.492652 2.30276 -0.492651 0.674265 2.32021ZM5 6C5 6.36819 4.70152 6.66667 4.33333 6.66667C3.96514 6.66667 3.66667 6.36819 3.66667 6C3.66667 5.63181 3.96514 5.33333 4.33333 5.33333C4.70152 5.33333 5 5.63181 5 6ZM5 3.33333C5 3.70152 4.70152 4 4.33333 4C3.96514 4 3.66667 3.70152 3.66667 3.33333V2C3.66667 1.63181 3.96514 1.33333 4.33333 1.33333C4.70152 1.33333 5 1.63181 5 2V3.33333Z" fill="#F03738" />
</svg>