<svg xmlns="http://www.w3.org/2000/svg" width="29" height="29" viewBox="0 0 29 29" fill="none">
  <path d="M8.39649 26.3893H4.79795C4.16169 26.3893 3.55149 26.1365 3.10158 25.6866C2.65168 25.2367 2.39893 24.6265 2.39893 23.9903V15.5937C2.39893 14.9574 2.65168 14.3472 3.10158 13.8973C3.55149 13.4474 4.16169 13.1946 4.79795 13.1946H8.39649M16.7931 10.7956V5.99756C16.7931 5.04317 16.414 4.12786 15.7391 3.45301C15.0642 2.77815 14.1489 2.39902 13.1945 2.39902L8.39649 13.1946V26.3893H21.927C22.5056 26.3958 23.067 26.1931 23.5079 25.8183C23.9487 25.4436 24.2393 24.9222 24.326 24.3501L25.9814 13.5545C26.0335 13.2107 26.0104 12.8596 25.9134 12.5256C25.8164 12.1916 25.648 11.8827 25.4198 11.6203C25.1916 11.3579 24.9091 11.1482 24.5918 11.0058C24.2745 10.8634 23.9301 10.7917 23.5823 10.7956H16.7931Z" stroke="currentColor" strokeWidth="2.39903" strokeLinecap="round" strokeLinejoin="round" />
</svg>