<svg xmlns="http://www.w3.org/2000/svg" width="108" height="103" viewBox="0 0 108 103" fill="none">
  <path d="M54 78.3027C52.136 78.3027 50.625 76.7917 50.625 74.9277V58.0527H33.75C31.886 58.0527 30.375 56.5417 30.375 54.6777C30.375 52.8138 31.886 51.3027 33.75 51.3027H50.625V34.4277C50.625 32.5638 52.136 31.0527 54 31.0527C55.864 31.0527 57.375 32.5638 57.375 34.4277V51.3027H74.25C76.1139 51.3027 77.625 52.8138 77.625 54.6777C77.625 56.5417 76.1139 58.0527 74.25 58.0527H57.375V74.9277C57.375 76.7917 55.864 78.3027 54 78.3027Z" fill="currentColor" />
  <path fillRule="evenodd" clipRule="evenodd" d="M94.5 54.6777C94.5 77.0453 76.3675 95.1777 54 95.1777C31.6325 95.1777 13.5 77.0453 13.5 54.6777C13.5 32.3102 31.6325 14.1777 54 14.1777C76.3675 14.1777 94.5 32.3102 94.5 54.6777ZM87.75 54.6777C87.75 73.3173 72.6396 88.4277 54 88.4277C35.3604 88.4277 20.25 73.3173 20.25 54.6777C20.25 36.0381 35.3604 20.9277 54 20.9277C72.6396 20.9277 87.75 36.0381 87.75 54.6777Z" fill="currentColor" />
</svg>