<svg xmlns="http://www.w3.org/2000/svg" viewBox="0 0 16 16" fill="none">
  <rect width="16" height="16" fill="white" />
  <path fillRule="evenodd" clipRule="evenodd" d="M11 5C11 6.65685 9.65685 8 8 8C6.34315 8 5 6.65685 5 5C5 3.34315 6.34315 2 8 2C9.65685 2 11 3.34315 11 5ZM10 5C10 6.10457 9.10457 7 8 7C6.89543 7 6 6.10457 6 5C6 3.89543 6.89543 3 8 3C9.10457 3 10 3.89543 10 5Z" fill="black" />
  <path d="M3.5 13.5C3.5 12.9396 3.71511 12.064 4.37165 11.3345C5.01378 10.621 6.12099 10 8 10C9.87901 10 10.9862 10.621 11.6284 11.3345C12.2849 12.064 12.5 12.9396 12.5 13.5C12.5 13.7761 12.7239 14 13 14C13.2761 14 13.5 13.7761 13.5 13.5C13.5 12.727 13.2151 11.6027 12.3716 10.6655C11.5138 9.71233 10.121 9 8 9C5.87901 9 4.48622 9.71233 3.62835 10.6655C2.78489 11.6027 2.5 12.727 2.5 13.5C2.5 13.7761 2.72386 14 3 14C3.27614 14 3.5 13.7761 3.5 13.5Z" fill="black" />
</svg>